<svg xmlns="http://www.w3.org/2000/svg" viewBox="0 0 232 232">
  <rect width="232" height="232" rx="52" fill="#FAF9F5"/>
  <g transform="translate(8, 44)">
    <path fill="#0ba696" d="M195.98,128.97c-.41-3.37-4.03-4.34-4.79-7.71-2.68-23.62,6.01-59.49-6.77-80.23-16.32-22.93-50.98-17.86-60.61,8.26-2.59,7.02-.36,15.66-9.3,16.7-2.79.32-9.25.35-11.97-.08-7.89-1.25-6.59-9.96-8.78-16.22-9.82-28.03-47.73-31.52-62.21-5.66-9.71,20.98-2.34,53.54-4.62,76.38-.65,4.15-4.22,4.84-4.94,8.56-8.82-.21-19.95,1.61-21.05-10.45C-.55,102.25-.7,56.73,3.72,42.21,17.71-3.82,79.01-15.05,108.48,22.95c27.36-33.46,79.58-29.96,100.92,8.1,13.89,24.76,5.28,61.58,7.35,89.19-3.14,10.08-12.3,8.55-20.77,8.73Z"/>
    <path fill="#b9e1d7" d="M26.98,98.97c31.92-16.77,68.13-23.26,103.99-17.99-25.62,5.08-65.12,12.05-16.64,31.13,47.97,28.52-80.76,15.29-92.36,16.86.72-3.72,4.29-4.41,4.94-8.56.92-5.85-.01-15.08.06-21.44Z"/>
    <path fill="#b9e1d7" d="M190.98,102.97c.08,5.2-.83,13.69.21,18.29.76,3.37,4.38,4.34,4.79,7.71-4.9.1-9.91.14-14.8-.21-8.87-24.77-77.17-28.56-52.42-38.5,30.49-10.65,36.77,1.06,62.22,12.71Z"/>
  </g>
</svg>
