<?xml version="1.0" encoding="UTF-8"?>
<svg id="_レイヤー_2" data-name="レイヤー 2" xmlns="http://www.w3.org/2000/svg" viewBox="0 0 697.89 130.69">
  <defs>
    <style>
      .cls-1 {
        fill: #ffffff;
      }

      .cls-2 {
        fill: #b9e1d7;
      }

      .cls-3 {
        fill: #0ba696;
      }
    </style>
  </defs>
  <g id="_レイヤー_1-2" data-name="レイヤー 1">
    <g>
      <g>
        <path class="cls-3" d="M195.98,128.97c-.41-3.37-4.03-4.34-4.79-7.71-2.68-23.62,6.01-59.49-6.77-80.23-16.32-22.93-50.98-17.86-60.61,8.26-2.59,7.02-.36,15.66-9.3,16.7-2.79.32-9.25.35-11.97-.08-7.89-1.25-6.59-9.96-8.78-16.22-9.82-28.03-47.73-31.52-62.21-5.66-9.71,20.98-2.34,53.54-4.62,76.38-.65,4.15-4.22,4.84-4.94,8.56-8.82-.21-19.95,1.61-21.05-10.45C-.55,102.25-.7,56.73,3.72,42.21,17.71-3.82,79.01-15.05,108.48,22.95c27.36-33.46,79.58-29.96,100.92,8.1,13.89,24.76,5.28,61.58,7.35,89.19-3.14,10.08-12.3,8.55-20.77,8.73Z"/>
        <path class="cls-2" d="M26.98,98.97c31.92-16.77,68.13-23.26,103.99-17.99-25.62,5.08-65.12,12.05-16.64,31.13,47.97,28.52-80.76,15.29-92.36,16.86.72-3.72,4.29-4.41,4.94-8.56.92-5.85-.01-15.08.06-21.44Z"/>
        <path class="cls-2" d="M190.98,102.97c.08,5.2-.83,13.69.21,18.29.76,3.37,4.38,4.34,4.79,7.71-4.9.1-9.91.14-14.8-.21-8.87-24.77-77.17-28.56-52.42-38.5,30.49-10.65,36.77,1.06,62.22,12.71Z"/>
      </g>
      <g>
        <path class="cls-1" d="M276.09,107.31c-1.7,0-3.18-.63-4.44-1.89-1.26-1.26-1.89-2.74-1.89-4.44v-45.07c0-1.7.63-3.18,1.89-4.44,1.26-1.26,2.74-1.89,4.44-1.89h.67c1.78,0,3.29.61,4.55,1.83,1.26,1.22,1.92,2.72,2,4.5l.11,1.33c0,.07.04.11.11.11.15,0,.22-.04.22-.11,4.29-5.85,9.17-8.77,14.65-8.77,3.55,0,6.51.72,8.88,2.17,2.37,1.44,4.4,3.83,6.11,7.16,0,.07.07.11.22.11.07,0,.15-.04.22-.11,4.81-6.22,10.43-9.32,16.87-9.32s10.75,1.72,13.6,5.16c2.85,3.44,4.27,9.23,4.27,17.37v29.97c0,1.7-.63,3.18-1.89,4.44-1.26,1.26-2.74,1.89-4.44,1.89h-1.33c-1.7,0-3.18-.63-4.44-1.89-1.26-1.26-1.89-2.74-1.89-4.44v-26.64c0-5.77-.61-9.66-1.83-11.66s-3.39-3-6.49-3c-2.66,0-5,1.41-6.99,4.22-2,2.81-3,6.29-3,10.43v26.64c0,1.7-.63,3.18-1.89,4.44s-2.74,1.89-4.44,1.89h-1.33c-1.7,0-3.18-.63-4.44-1.89-1.26-1.26-1.89-2.74-1.89-4.44v-26.64c0-5.77-.61-9.66-1.83-11.66-1.22-2-3.39-3-6.49-3-2.66,0-5,1.41-6.99,4.22-2,2.81-3,6.29-3,10.43v26.64c0,1.7-.61,3.18-1.83,4.44-1.22,1.26-2.68,1.89-4.38,1.89h-1.67Z"/>
        <path class="cls-1" d="M373,37.38c-1.7,0-3.18-.63-4.44-1.89-1.26-1.26-1.89-2.74-1.89-4.44v-.67c0-1.7.63-3.18,1.89-4.44,1.26-1.26,2.74-1.89,4.44-1.89h2.66c1.7,0,3.18.63,4.44,1.89,1.26,1.26,1.89,2.74,1.89,4.44v.67c0,1.7-.63,3.18-1.89,4.44-1.26,1.26-2.74,1.89-4.44,1.89h-2.66ZM373,107.31c-1.7,0-3.18-.63-4.44-1.89-1.26-1.26-1.89-2.74-1.89-4.44v-45.07c0-1.7.63-3.18,1.89-4.44s2.74-1.89,4.44-1.89h2.66c1.7,0,3.18.63,4.44,1.89,1.26,1.26,1.89,2.74,1.89,4.44v45.07c0,1.7-.63,3.18-1.89,4.44s-2.74,1.89-4.44,1.89h-2.66Z"/>
        <path class="cls-1" d="M403.19,62.57c-1.48,0-2.74-.54-3.77-1.61-1.04-1.07-1.55-2.35-1.55-3.83s.52-2.74,1.55-3.77,2.29-1.55,3.77-1.55h5.66c.67,0,1-.33,1-1v-13.76c0-1.7.63-3.18,1.89-4.44,1.26-1.26,2.74-1.89,4.44-1.89h2.11c1.7,0,3.18.63,4.44,1.89,1.26,1.26,1.89,2.74,1.89,4.44v13.76c0,.67.29,1,.89,1h13.54c1.48,0,2.76.52,3.83,1.55,1.07,1.04,1.61,2.29,1.61,3.77s-.54,2.76-1.61,3.83c-1.07,1.07-2.35,1.61-3.83,1.61h-13.54c-.59,0-.89.3-.89.89v22.75c0,4.37.56,7.31,1.67,8.82,1.11,1.52,3.11,2.28,5.99,2.28,1.04,0,2.59-.15,4.66-.44,1.41-.22,2.74.05,4,.83,1.26.78,2,1.83,2.22,3.16.29,1.55.04,2.98-.78,4.27-.82,1.29-2,2.09-3.55,2.39-3.33.59-6.51.89-9.55.89-6.81,0-11.75-1.52-14.82-4.55-3.07-3.03-4.61-8.06-4.61-15.1v-25.31c0-.59-.33-.89-1-.89h-5.66Z"/>
        <path class="cls-1" d="M480.33,84c-8.14-1.33-13.97-3.51-17.48-6.55-3.52-3.03-5.27-7.14-5.27-12.32s2.02-9.16,6.05-12.16c4.03-3,9.9-4.5,17.59-4.5,5.77,0,11.25.78,16.43,2.33,1.48.44,2.57,1.39,3.27,2.83.7,1.44.87,2.94.5,4.5-.37,1.41-1.18,2.42-2.44,3.05-1.26.63-2.59.72-4,.28-4.22-1.41-8.55-2.11-12.99-2.11-6.81,0-10.21,2-10.21,5.99,0,1.92.74,3.4,2.22,4.44,1.48,1.04,4.07,1.81,7.77,2.33,8.21,1.18,14.1,3.31,17.65,6.38,3.55,3.07,5.33,7.31,5.33,12.71s-2.05,9.53-6.16,12.6c-4.11,3.07-9.9,4.61-17.37,4.61-6.96,0-13.21-1.07-18.76-3.22-1.55-.59-2.65-1.63-3.28-3.11-.63-1.48-.76-3.03-.39-4.66.29-1.41,1.09-2.4,2.39-3,1.29-.59,2.61-.59,3.94,0,4.88,2,9.99,3,15.32,3,6.44,0,9.66-2.15,9.66-6.44,0-2-.67-3.5-2-4.5s-3.92-1.83-7.77-2.5Z"/>
        <path class="cls-1" d="M535.61,108.42c-6.29,0-10.92-1.79-13.88-5.38-2.96-3.59-4.44-9.45-4.44-17.59v-29.53c0-1.7.61-3.18,1.83-4.44,1.22-1.26,2.68-1.89,4.38-1.89h1.67c1.7,0,3.18.63,4.44,1.89,1.26,1.26,1.89,2.74,1.89,4.44v28.08c0,4.96.68,8.34,2.05,10.16,1.37,1.81,3.72,2.72,7.05,2.72s6.22-1.65,8.88-4.94c2.66-3.29,4-7.16,4-11.6v-24.42c0-1.7.63-3.18,1.89-4.44s2.74-1.89,4.44-1.89h1.89c1.7,0,3.16.63,4.38,1.89,1.22,1.26,1.83,2.74,1.83,4.44v45.07c0,1.7-.61,3.18-1.83,4.44-1.22,1.26-2.68,1.89-4.38,1.89h-1c-1.78,0-3.27-.61-4.5-1.83-1.22-1.22-1.87-2.72-1.94-4.5l-.11-1.67c0-.07-.04-.11-.11-.11-.15,0-.22.04-.22.11-2.22,2.81-4.94,5.03-8.16,6.66s-6.57,2.44-10.05,2.44Z"/>
        <path class="cls-1" d="M590,107.31c-1.7,0-3.16-.63-4.38-1.89-1.22-1.26-1.83-2.74-1.83-4.44V30.38c0-1.7.61-3.18,1.83-4.44,1.22-1.26,2.68-1.89,4.38-1.89h1.89c1.7,0,3.18.63,4.44,1.89,1.26,1.26,1.89,2.74,1.89,4.44v41.62c0,.07.04.11.11.11h.11l17.54-17.98c2.89-3.03,6.44-4.55,10.66-4.55h4.66c1.18,0,2,.54,2.44,1.61.44,1.07.26,2.02-.55,2.83l-22.31,22.31c-.37.37-.37.81,0,1.33l22.98,24.97c.81.89.98,1.89.5,3-.48,1.11-1.31,1.67-2.5,1.67h-4.66c-4.15,0-7.62-1.59-10.43-4.77l-18.31-20.65c0-.07-.04-.11-.11-.11s-.11.04-.11.11v19.09c0,1.7-.63,3.18-1.89,4.44s-2.74,1.89-4.44,1.89h-1.89Z"/>
        <path class="cls-1" d="M672.14,108.42c-8.73,0-15.82-2.7-21.26-8.1-5.44-5.4-8.16-12.69-8.16-21.87s2.51-16.65,7.55-21.98c5.03-5.33,11.84-7.99,20.42-7.99s15.06,2.5,19.87,7.49c4.81,5,7.25,12.16,7.33,21.48,0,1.78-.67,3.26-2,4.44-1.33,1.18-2.89,1.78-4.66,1.78h-33.08c-.74,0-1.04.33-.89,1,.52,4.07,2.26,7.29,5.22,9.66,2.96,2.37,6.66,3.55,11.1,3.55,3.77,0,7.55-.67,11.32-2,1.33-.52,2.66-.48,4,.11,1.33.59,2.22,1.55,2.66,2.89.52,1.48.42,2.9-.28,4.27-.7,1.37-1.76,2.31-3.16,2.83-4.88,1.63-10.21,2.44-15.98,2.44ZM670.8,58.91c-3.92,0-7.09,1.2-9.49,3.61s-3.76,5.87-4.05,10.38c0,.59.29.89.89.89h25.09c.59,0,.89-.29.89-.89-.22-4.51-1.5-7.97-3.83-10.38-2.33-2.4-5.5-3.61-9.49-3.61Z"/>
      </g>
    </g>
  </g>
</svg>